<svg xmlns="http://www.w3.org/2000/svg" xmlns:xlink="http://www.w3.org/1999/xlink" width="95" height="94" viewBox="0 0 95 94">
  <defs>
    <clipPath id="clip-path">
      <rect id="Rectangle_10" data-name="Rectangle 10" width="95" height="94" transform="translate(0.233)" fill="#004037"/>
    </clipPath>
  </defs>
  <g id="Group_18" data-name="Group 18" transform="translate(-0.233)">
    <g id="Group_7" data-name="Group 7" transform="translate(0 0)" clip-path="url(#clip-path)">
      <path id="Path_2" data-name="Path 2" d="M53,94.961c-1.662-.235-3.33-.43-4.984-.711a42.5,42.5,0,0,1-20.374-9.382A43.529,43.529,0,0,1,12.255,58.922a44.155,44.155,0,0,1,.274-17.9c.261-1.2.874-1.706,1.783-1.49.851.2,1.178.91.924,2.073a39.633,39.633,0,0,0,2.1,24.7C23.653,80.9,34.756,89.6,50.544,91.809A41.224,41.224,0,0,0,93.789,67.327a40.621,40.621,0,0,0,3.41-19c-.011-.183-.037-.365-.061-.546,0-.02-.038-.035.033.026a24.622,24.622,0,0,1-3.6,1.147c-3.792.606-7.011-.672-8.886-3.978a72.535,72.535,0,0,1-4.251-9.737,11.933,11.933,0,0,1-.468-5.636,3.3,3.3,0,0,0-.17-1.251c-1.084-3.677-1.149-7.25,1.128-10.72A41.831,41.831,0,0,0,53.459,9.214a10.156,10.156,0,0,0,.9,1.948c.841,1.091,1.8,2.09,2.7,3.134a5.7,5.7,0,0,1-.25,8.108c-1.982,2.008-3.991,3.989-5.982,5.988a9.417,9.417,0,0,1-6.947,2.85c-1.932,0-3.864.021-5.8-.005a8.564,8.564,0,0,0-5.249,1.657c-1.469,1.053-2.971,2.062-4.455,3.095a3.562,3.562,0,0,1-5.753-3.016c.011-2.348,0-4.7-.208-7.134-.793,1.213-1.673,2.379-2.358,3.65-1.059,1.964-2.006,3.99-2.956,6.01-.347.739-.767,1.263-1.657,1.135-.925-.133-1.343-1.032-.944-2.066a42.668,42.668,0,0,1,4.769-8.989c.539-.778,1.105-1.538,1.536-2.135-1.115-2.172-2.319-4.177-3.2-6.315a13.033,13.033,0,0,1-.633-9.253A10.419,10.419,0,0,1,37.168,9.558c.038.235.082.469.141.8.336-.13.609-.232.881-.34Q61.372.76,81.9,14.969a1.318,1.318,0,0,0,1.8.008,9.877,9.877,0,0,1,11.261-.192c3.843,2.417,5.354,6.093,4.882,10.566a18.919,18.919,0,0,1-2.74,7.736,1.505,1.505,0,0,0-.12,1.451c5.189,14.1,4.026,27.659-4.157,40.272-7.413,11.426-18.116,18.006-31.679,19.8l-2.623.348ZM25.4,28.041c0,1.692-.025,3.253.019,4.811a1.319,1.319,0,0,0,.422.993,1.28,1.28,0,0,0,1.056-.2c1.482-.978,2.935-2,4.385-3.026a11.137,11.137,0,0,1,6.8-2.133c1.776.032,3.555-.033,5.331.016a7.363,7.363,0,0,0,5.833-2.393c1.709-1.8,3.5-3.52,5.254-5.275,1.8-1.8,1.794-3.156.193-5.105-1.56-1.9-3.8-3.394-3.82-6.272a42.485,42.485,0,0,0-12.353,3.418,2.565,2.565,0,0,0-1.684,2c-1.068,4.683-3.785,8.429-6.986,11.89C28.627,28.08,27.3,28.752,25.4,28.041M26.841,3.431c-.69.123-1.4.188-2.068.378-4.091,1.161-6.275,5.079-5.362,9.641.952,4.752,3.694,8.466,6.965,11.864.4.412.75.3,1.092-.075.555-.612,1.139-1.2,1.668-1.835,2.748-3.29,4.928-6.851,5.4-11.243a7.932,7.932,0,0,0-7.7-8.73M81.786,23.713c.075.668.109,1.344.231,2,.894,4.843,3.67,8.6,7.013,12.015a1.015,1.015,0,0,0,.982-.034,14.974,14.974,0,0,0,1.635-1.735c2.666-3.147,4.8-6.565,5.44-10.743.7-4.592-2.447-8.877-6.806-9.231a7.683,7.683,0,0,0-8.5,7.725m1.67,11.947a.466.466,0,0,0,0,.208c1.111,2.486,2.107,5.033,3.375,7.436A6.01,6.01,0,0,0,94.8,45.751c2.1-1.02,2.11-1.05,1.659-3.316-.012-.06-.015-.122-.03-.181-.5-1.873-1-3.746-1.531-5.762-1.079,1.178-1.956,2.2-2.9,3.151a3.254,3.254,0,0,1-5.015-.033c-1.223-1.283-2.367-2.643-3.529-3.95" transform="translate(-8.317 -1.145)" fill="#004037"/>
      <path id="Path_3" data-name="Path 3" d="M145.6,129.466c2.319,1.643,4.491,3.3,6.779,4.775,3.448,2.226,5.125,6.948,1.044,11.506a1.267,1.267,0,0,1-1.818.208,1.245,1.245,0,0,1-.376-1.783c.342-.579.775-1.1,1.134-1.673a3.976,3.976,0,0,0-.74-5.324c-2.4-1.843-4.918-3.544-7.4-5.313-1.163,1.374-2.267,2.712-3.407,4.018-.813.931-1.68,1.913-3.051,1.777a3.964,3.964,0,0,1-2.253-.8c-3.753-3.635-6.742-7.775-7.921-12.991-.188-.83-.274-1.683-.423-2.628a5.86,5.86,0,0,0-5.078,2.186c-1.921,2.462-3.687,5.047-5.446,7.63a4.9,4.9,0,0,0-.681,3.5c.284-.215.489-.356.679-.516a10.417,10.417,0,0,1,17.278,6.7c.457,3.618-.728,6.9-2.415,10.015a31.385,31.385,0,0,1-5.518,7.2,3.406,3.406,0,0,1-3.474.879c-.063,2.191-.261,4.334-.15,6.462a2.925,2.925,0,0,0,4.6,2.077c1.65-1.058,3.234-2.219,4.846-3.338,2.543-1.765,5.078-3.541,7.627-5.3a19.005,19.005,0,0,0,4.868-4.832c1.174-1.685,2.335-3.382,3.587-5.007a1.876,1.876,0,0,1,1.388-.617c.367.019.819.5,1.023.883a1.269,1.269,0,0,1-.1,1.11c-2.39,3.289-4.3,7-7.614,9.506-3.2,2.421-6.547,4.647-9.833,6.952-1.355.951-2.711,1.9-4.082,2.826a5.765,5.765,0,0,1-9.112-4.9c.051-2.36.117-4.722.259-7.078a2.441,2.441,0,0,0-.673-1.886,23.835,23.835,0,0,1-5.739-11.14,11.959,11.959,0,0,1,.431-6.519,1.418,1.418,0,0,0-.015-.937,8.366,8.366,0,0,1,1.069-8.44c1.425-2,2.849-3.992,4.253-6a9.294,9.294,0,0,1,7.486-4.2.912.912,0,0,0,1-.774,10.411,10.411,0,0,1,12.22-7.354,10.712,10.712,0,0,1,8.157,11.964,21.668,21.668,0,0,1-2.411,7.17m-15.686-8.775c.133.906.2,1.829.409,2.716,1.063,4.472,3.691,8.007,6.808,11.242.439.455.817.309,1.154-.111,1.414-1.764,2.945-3.451,4.2-5.323a15.246,15.246,0,0,0,2.841-8.59,7.706,7.706,0,1,0-15.411.065m-6.328,13.362a20.748,20.748,0,0,0-2.326.462c-4.012,1.267-6.066,5.188-5.108,9.712.99,4.672,3.688,8.339,6.912,11.694a.648.648,0,0,0,1.09-.024c.495-.544,1.02-1.061,1.494-1.621,2.847-3.367,5.129-7,5.6-11.535a7.944,7.944,0,0,0-7.665-8.687" transform="translate(-84.996 -83.607)" fill="#004037"/>
      <path id="Path_4" data-name="Path 4" d="M56.334,32.591a5.8,5.8,0,0,1,.02-11.608,5.8,5.8,0,1,1-.02,11.608m.05-2.758a3.06,3.06,0,0,0,3.05-3.034A3.1,3.1,0,0,0,56.4,23.739a3.062,3.062,0,0,0-3.081,3.1,3.03,3.03,0,0,0,3.069,3" transform="translate(-37.799 -16.413)" fill="#004037"/>
      <path id="Path_5" data-name="Path 5" d="M311.073,71.63a5.809,5.809,0,1,1-5.763,5.8,5.8,5.8,0,0,1,5.763-5.8m-.007,2.754a3,3,0,0,0-3,3.058,3.054,3.054,0,0,0,3.031,3.051,3.1,3.1,0,0,0,3.063-3.13,3.045,3.045,0,0,0-3.1-2.979" transform="translate(-229.919 -54.609)" fill="#004037"/>
      <path id="Path_6" data-name="Path 6" d="M195.113,141.984a5.8,5.8,0,0,1-.1-11.606,5.007,5.007,0,0,1,1.272.152,1.251,1.251,0,0,1,1.017,1.511,1.3,1.3,0,0,1-1.42,1.164,8.757,8.757,0,0,0-1.277-.025,3.046,3.046,0,1,0,3.529,3.308c.011-.091,0-.184.015-.275a1.381,1.381,0,1,1,2.75.164,5.809,5.809,0,0,1-5.788,5.607" transform="translate(-142.426 -98.914)" fill="#004037"/>
      <path id="Path_7" data-name="Path 7" d="M137.822,216.991a5.8,5.8,0,1,1-.056,11.608,5.8,5.8,0,0,1,.056-11.608m-.017,2.757a3.049,3.049,0,0,0-3.052,3.027,3.063,3.063,0,1,0,6.125-.024,3.043,3.043,0,0,0-3.073-3" transform="translate(-99.214 -164.234)" fill="#004037"/>
    </g>
  </g>
</svg>
