<svg xmlns="http://www.w3.org/2000/svg" xmlns:xlink="http://www.w3.org/1999/xlink" width="95" height="95" viewBox="0 0 95 95">
  <defs>
    <clipPath id="clip-path">
      <rect id="Rectangle_14" data-name="Rectangle 14" width="95" height="95" transform="translate(0.247)" fill="#004037"/>
    </clipPath>
  </defs>
  <g id="Group_21" data-name="Group 21" transform="translate(-0.247)">
    <g id="Group_16" data-name="Group 16" clip-path="url(#clip-path)">
      <path id="Path_15" data-name="Path 15" d="M138.707,106.245a10.77,10.77,0,0,1-1.394-1.75Q134.028,98,130.844,91.461a6.835,6.835,0,0,1,4.613-9.826,6.708,6.708,0,0,1,7.137,2.9c.794,1.2,1.52,2.441,2.482,3.636v-.848q0-12.5.016-25a1.181,1.181,0,0,0-.837-1.293,18.823,18.823,0,1,1,26.2-15.249c-.835,7.205-4.745,12.3-11.331,15.315a1.227,1.227,0,0,0-.868,1.347c.044,2.948.018,5.9.018,9.078,1.73-.616,3.374-1.1,4.931-1.774A28.42,28.42,0,0,0,175.547,28.3c-.326-.509-.586-.685-1.233-.454a6.99,6.99,0,1,1,4.546-7.88,6.56,6.56,0,0,1-.689,4.557,1,1,0,0,0,.078,1.224,30.572,30.572,0,0,1,5.423,20.881c-1.219,11.722-7.2,20.345-17.63,25.861-.348.184-.7.351-1.133.564l1.017.872a6.747,6.747,0,0,1,11.146,2.609,6.752,6.752,0,0,1,4.458-.657,6.513,6.513,0,0,1,5.3,6.347c.052,7.317.015,14.635.027,21.952a2.352,2.352,0,0,1-1.279,2.069H184.47a2.42,2.42,0,0,1-1.329-2.485c.038-6.947.025-13.894.008-20.841a4.9,4.9,0,0,0-.263-1.71,2.859,2.859,0,0,0-3.231-1.712,2.945,2.945,0,0,0-2.339,2.923c-.033,2.059.006,4.119-.021,6.178a1.8,1.8,0,0,1-1.762,1.868,1.841,1.841,0,0,1-1.9-1.749,7.56,7.56,0,0,1-.016-.829c0-3.074.007-6.148-.006-9.222a2.889,2.889,0,1,0-5.775-.118c-.042,3.043-.013,6.086-.015,9.13a7.957,7.957,0,0,1-.022.921,1.875,1.875,0,0,1-1.9,1.758,1.8,1.8,0,0,1-1.754-1.882c-.025-3.135,0-6.271-.026-9.406a4.747,4.747,0,0,0-.258-1.619,2.858,2.858,0,0,0-3.116-1.767,2.923,2.923,0,0,0-2.454,2.92c-.025,3.012,0,6.025-.013,9.037a1.81,1.81,0,0,1-1.8,2.02,1.849,1.849,0,0,1-1.89-2.033c-.007-.246,0-.492,0-.738q0-16.645,0-33.291c0-.338.011-.677-.01-1.014a2.9,2.9,0,0,0-2.222-2.625,2.717,2.717,0,0,0-3.133,1.36,5.335,5.335,0,0,0-.432,2.213q-.037,20.334-.021,40.668a8.352,8.352,0,0,1-.066,1.286,1.455,1.455,0,0,1-1.292,1.369,4.212,4.212,0,0,1-1.835-.506c-.261-.119-.4-.528-.572-.816-1.794-2.935-3.571-5.88-5.38-8.806a3.132,3.132,0,0,0-3.4-1.484,3,3,0,0,0-2.393,2.712,4.455,4.455,0,0,0,.465,2.106c2.1,4.337,4.259,8.646,6.4,12.965.775,1.567.568,2.317-.872,3.218ZM158.277,57.4A15.122,15.122,0,1,0,136.7,42.11c-.646,6.384,3.431,13.808,8.378,15.1,0-1.276-.032-2.529.011-3.779a7.678,7.678,0,0,1,.295-2.45,2.066,2.066,0,0,0-.435-2.272,8.332,8.332,0,0,1,1.023-11.064,8.449,8.449,0,0,1,11.131-.4,8.23,8.23,0,0,1,1.793,10.946c-.839,1.245-1.287,2.266-.7,3.694a4.617,4.617,0,0,1,.077,1.646c.007,1.251,0,2.5,0,3.863m-9.905-10.353a6.813,6.813,0,0,1,6.33-.16.9.9,0,0,0,.811-.2,4.714,4.714,0,0,0-.62-6.472,4.778,4.778,0,0,0-6.582.306,4.665,4.665,0,0,0,.061,6.528m26.905-25.733a3.284,3.284,0,0,0-3.283-3.358,3.353,3.353,0,0,0-3.349,3.323,3.313,3.313,0,0,0,3.267,3.3,3.255,3.255,0,0,0,3.365-3.26" transform="translate(-105.678 -11.617)" fill="#004037"/>
      <path id="Path_16" data-name="Path 16" d="M82.626,49.158a7.425,7.425,0,0,1,4.878-.424,7.01,7.01,0,1,1-8.133,3.8,1.548,1.548,0,0,0-.125-1.8,32.023,32.023,0,0,1,19.5-49,42.068,42.068,0,0,1,4.914-.739,1.848,1.848,0,0,1,2.294,1.679c.073,1.152-.677,1.886-2.032,1.99A28.316,28.316,0,0,0,77.788,29.284,27.586,27.586,0,0,0,82.18,48.53c.132.2.279.395.446.628M89,55.507A3.266,3.266,0,0,0,85.679,52.2a3.31,3.31,0,0,0-.016,6.619A3.287,3.287,0,0,0,89,55.507" transform="translate(-59.82 -0.804)" fill="#004037"/>
      <path id="Path_17" data-name="Path 17" d="M274.624,4.613A1.79,1.79,0,0,1,276.4,6.457a1.824,1.824,0,0,1-1.829,1.807,1.865,1.865,0,0,1-1.841-1.905,1.834,1.834,0,0,1,1.894-1.745" transform="translate(-221.951 -3.76)" fill="#004037"/>
    </g>
  </g>
</svg>
