<svg id="Group_20" data-name="Group 20" xmlns="http://www.w3.org/2000/svg" xmlns:xlink="http://www.w3.org/1999/xlink" width="95" height="94" viewBox="0 0 95 94">
  <defs>
    <clipPath id="clip-path">
      <rect id="Rectangle_13" data-name="Rectangle 13" width="95" height="94" fill="#004037"/>
    </clipPath>
  </defs>
  <g id="Group_13" data-name="Group 13" transform="translate(0 0)" clip-path="url(#clip-path)">
    <path id="Path_12" data-name="Path 12" d="M95.045,95.261a13.2,13.2,0,0,1-1.35-1.674c-1.252-2.18-2.455-4.389-3.64-6.607a.825.825,0,0,0-1.163-.471c-2.557.756-5.132,1.448-7.694,2.184a1.886,1.886,0,0,1-2.381-2.708q4.749-11.319,9.477-22.646c.129-.309.254-.619.432-1.055-1.228-.127-2.37-.282-3.517-.358a7.608,7.608,0,0,1-7.522-7.156q-.356-3.248-.651-6.5a5.314,5.314,0,0,0-1.284-2.99q-2.062-2.477-4.1-4.976a7.529,7.529,0,0,1-.029-9.882c1.211-1.508,2.41-3.029,3.7-4.468a7.025,7.025,0,0,0,1.83-4.4c.132-1.989.363-3.972.56-5.957a7.551,7.551,0,0,1,6.716-6.744c2.26-.226,4.517-.473,6.779-.669A5.543,5.543,0,0,0,94.363,6.82c1.531-1.28,3.077-2.541,4.612-3.814,3.319-2.752,7.046-2.781,10.387-.068,1.453,1.181,2.934,2.332,4.326,3.582a6.908,6.908,0,0,0,4.33,1.767c1.928.133,3.85.35,5.773.545a7.588,7.588,0,0,1,6.975,7.11c.192,2.108.392,4.216.588,6.324a5.471,5.471,0,0,0,1.275,3.094q2.071,2.469,4.1,4.975a7.568,7.568,0,0,1-.006,10.034,45.234,45.234,0,0,1-2.95,3.532,9.083,9.083,0,0,0-2.629,6.552c-.033,1.5-.225,3-.4,4.491a7.643,7.643,0,0,1-7.245,6.962c-1.22.1-2.439.232-3.775.36.161.43.281.789.426,1.137q4.652,11.11,9.308,22.219c.071.17.136.342.21.51a1.84,1.84,0,0,1-.231,2.07,1.864,1.864,0,0,1-2.1.525c-2.6-.731-5.2-1.441-7.783-2.21a.862.862,0,0,0-1.218.518c-1.192,2.248-2.411,4.484-3.685,6.687a9.939,9.939,0,0,1-1.37,1.538h-1.105a9.986,9.986,0,0,1-1.353-1.758c-.806-1.718-1.49-3.493-2.222-5.246-.91-2.177-1.832-4.348-2.723-6.533-.483-1.184.118-2.186,1.24-2.143.765.03,1.11.538,1.374,1.169q2,4.793,4.013,9.58c.1.233.211.46.383.831l3.1-5.606c1.053-1.908,2.075-2.339,4.159-1.757l6.207,1.73c-.181-.464-.3-.8-.44-1.124q-4.219-10.091-8.441-20.181c-.79-1.888-1.217-2-2.926-.725-.32.238-.621.5-.93.753-1.615,1.321-3.25,2.618-4.83,3.979a4.424,4.424,0,0,0-1.194,1.532c-3.353,7.929-6.65,15.882-10.015,23.807a7.573,7.573,0,0,1-1.424,1.692ZM135.8,35.305a4.783,4.783,0,0,0-1.251-3.238c-1.393-1.675-2.768-3.366-4.16-5.042a8.089,8.089,0,0,1-1.824-4.626c-.2-2.292-.386-4.588-.708-6.864a4.618,4.618,0,0,0-4.268-3.922c-2.016-.192-4.029-.421-6.048-.566a9.13,9.13,0,0,1-5.576-2.323c-1.448-1.279-2.967-2.479-4.464-3.7A4.774,4.774,0,0,0,100.965,5q-2.462,2.007-4.9,4.04a7.857,7.857,0,0,1-4.4,1.9c-2.26.21-4.518.453-6.778.67a4.764,4.764,0,0,0-4.4,4.425c-.189,2.016-.414,4.029-.569,6.048A8.955,8.955,0,0,1,77.668,27.5c-1.257,1.427-2.434,2.925-3.639,4.4-1.922,2.347-1.919,4.567,0,6.888q2.051,2.485,4.092,4.979a7.346,7.346,0,0,1,1.674,4.014c.226,2.321.464,4.64.692,6.96a4.658,4.658,0,0,0,3.942,4.254,44.99,44.99,0,0,0,5.125.516,10.986,10.986,0,0,1,7.658,3.058c1.161,1.131,2.491,2.089,3.75,3.119a4.769,4.769,0,0,0,6.468.033q2.471-2,4.9-4.044a8.407,8.407,0,0,1,4.94-1.991c2.232-.174,4.465-.377,6.681-.684a4.505,4.505,0,0,0,3.927-3.942,45.375,45.375,0,0,0,.5-5.034,10.976,10.976,0,0,1,3.048-7.661c1.194-1.228,2.206-2.634,3.292-3.966a4.584,4.584,0,0,0,1.082-3.09m-40.24,55.9,8.992-21.494c-3.081.186-5.078-1.565-7.1-3.288-1.073-.916-2.156-1.821-3.27-2.686a10.65,10.65,0,0,0-1.572-.928c-.624-.331-1-.21-1.3.529-2.951,7.129-5.945,14.241-8.923,21.359-.1.23-.15.477-.258.823,2.169-.61,4.2-1.183,6.227-1.751,1.967-.551,3.054-.1,4.038,1.683,1.021,1.848,2.035,3.7,3.164,5.753" transform="translate(-56.909 -1.284)" fill="#004037"/>
    <path id="Path_13" data-name="Path 13" d="M181.63,90.862a21.833,21.833,0,1,1-31.5-19.6c.082-.041.168-.074.251-.113,1.136-.533,1.881-.388,2.293.447.4.811.03,1.506-1.071,2.075-6.908,3.566-10.564,9.252-10.845,17-.333,9.178,6.977,17.748,16.084,19.014a19.041,19.041,0,0,0,6.4-37.537,42.607,42.607,0,0,0-5.128-.245,6.017,6.017,0,0,1-1.369-.033,1.246,1.246,0,0,1-.942-1.406,1.4,1.4,0,0,1,1.417-1.3A21.578,21.578,0,0,1,168.217,70.7a21.827,21.827,0,0,1,13.413,20.16" transform="translate(-112.496 -56.803)" fill="#004037"/>
    <path id="Path_14" data-name="Path 14" d="M184.735,144.371c.358-.448.6-.81.9-1.112q4.577-4.6,9.175-9.177a4.278,4.278,0,1,1,6.068,6.02q-6.519,6.562-13.079,13.082a4.238,4.238,0,0,1-6.3,0q-2.95-2.906-5.858-5.856a4.276,4.276,0,1,1,5.994-6.093c.992.955,1.942,1.955,3.106,3.132m-.041,7.546a8.729,8.729,0,0,0,1.279-.88q6.4-6.359,12.763-12.751a2.817,2.817,0,0,0,.475-.557,1.388,1.388,0,0,0-.18-1.777,1.355,1.355,0,0,0-1.838-.227,4.62,4.62,0,0,0-.748.677q-5.275,5.269-10.547,10.54c-.938.935-1.575.929-2.516,0-1.244-1.229-2.465-2.482-3.718-3.7a1.452,1.452,0,0,0-2.136-.127,1.476,1.476,0,0,0,.058,2.2q2.939,2.983,5.928,5.917a5.882,5.882,0,0,0,1.18.684" transform="translate(-142.096 -108.723)" fill="#004037"/>
  </g>
</svg>
